# MagicaVoxel @ Ephtracy

# group
o 

# material
mtllib Requester-3.mtl
usemtl palette

# normals
vn -1 0 0
vn 1 0 0
vn 0 0 1
vn 0 0 -1
vn 0 -1 0
vn 0 1 0

# texcoords
vt 0.830078 0.5
vt 0.833984 0.5
vt 0.896484 0.5
vt 0.923828 0.5
vt 0.927734 0.5
vt 0.955078 0.5
vt 0.962891 0.5
vt 0.986328 0.5

# verts
v -1.5 2 1.3
v -1.5 2 -1.2
v -1.5 5.5 1.3
v -1.5 5.5 1.2
v -1.5 5.6 1.2
v -1.5 5.6 1.1
v -1.5 5.7 1.1
v -1.5 5.7 1
v -1.5 5.8 1
v -1.5 5.8 0.9
v -1.5 5.9 0.9
v -1.5 5.9 0.8
v -1.5 6 0.8
v -1.5 6 -1.2
v -1.4 5.5 1.3
v -1.4 5.5 1.2
v -1.4 5.6 1.3
v -1.4 5.6 1.2
v -1.4 5.6 1.1
v -1.4 5.7 1.2
v -1.4 5.7 1.1
v -1.4 5.7 1
v -1.4 5.8 1.1
v -1.4 5.8 1
v -1.4 5.8 0.9
v -1.4 5.9 1
v -1.4 5.9 0.9
v -1.4 5.9 0.8
v -1.4 6 0.9
v -1.4 6 0.8
v -1.3 5.6 1.3
v -1.3 5.6 1.2
v -1.3 5.7 1.3
v -1.3 5.7 1.2
v -1.3 5.7 1.1
v -1.3 5.8 1.2
v -1.3 5.8 1.1
v -1.3 5.8 1
v -1.3 5.9 1.1
v -1.3 5.9 1
v -1.3 5.9 0.9
v -1.3 6 1
v -1.3 6 0.9
v -1.2 5.7 1.3
v -1.2 5.7 1.2
v -1.2 5.8 1.3
v -1.2 5.8 1.2
v -1.2 5.8 1.1
v -1.2 5.9 1.2
v -1.2 5.9 1.1
v -1.2 5.9 1
v -1.2 6 1.1
v -1.2 6 1
v -1.1 5.8 1.3
v -1.1 5.8 1.2
v -1.1 5.9 1.3
v -1.1 5.9 1.2
v -1.1 5.9 1.1
v -1.1 6 1.2
v -1.1 6 1.1
v -1 5.9 1.3
v -1 5.9 1.2
v -1 6 1.3
v -1 6 1.2
v -0.9 4.5 1.3
v -0.9 4.5 1.2
v -0.9 4.6 1.3
v -0.9 4.6 1.2
v -0.8 2 1.3
v -0.8 2 1.2
v -0.8 4.5 1.3
v -0.8 4.5 1.2
v 0.8 4.9 2.9
v 0.8 4.9 1.3
v 0.8 5.4 2.9
v 0.8 5.4 1.3
v 0.9 2 1.3
v 0.9 2 1.2
v 0.9 4.6 1.3
v 0.9 4.6 1.2
v 0.9 4.9 3.3
v 0.9 4.9 3.1
v 0.9 5 3.3
v 0.9 5 3.1
v 0.9 5 3
v 0.9 5 2.9
v 0.9 5.1 3.1
v 0.9 5.1 3
v 0.9 5.3 3.3
v 0.9 5.3 3.1
v 0.9 5.3 2.9
v 0.9 5.4 4
v 0.9 5.4 3.3
v 0.9 5.4 3.2
v 0.9 5.5 3.2
v 0.9 5.5 3.1
v 0.9 5.6 4
v 0.9 5.6 3.1
v 1 4.9 3.4
v 1 4.9 3.3
v 1 5 3.4
v 1 5 3.3
v 1 5.3 4
v 1 5.3 3.4
v 1 5.3 3.3
v 1 5.4 4
v 1 5.4 3.3
v 1 5.6 4
v 1 5.6 3.1
v 1 5.7 4
v 1 5.7 3.9
v 1 5.7 3.2
v 1 5.7 3.1
v 1 5.8 4
v 1 5.8 3.9
v 1 5.8 3.2
v 1 5.8 3.1
v 1.2 5.4 4
v 1.2 5.4 3.5
v 1.2 5.6 4
v 1.2 5.6 3.5
v -1 2 1.3
v -1 2 1.2
v -1 4.6 1.3
v -1 4.6 1.2
v 0.7 2 1.3
v 0.7 2 1.2
v 0.7 4.5 1.3
v 0.7 4.5 1.2
v 0.8 4.5 1.3
v 0.8 4.5 1.2
v 0.8 4.6 1.3
v 0.8 4.6 1.2
v 0.9 5.9 1.3
v 0.9 5.9 1.2
v 0.9 6 1.3
v 0.9 6 1.2
v 1 5.4 4
v 1 5.4 3.5
v 1 5.6 4
v 1 5.6 3.5
v 1 5.8 1.3
v 1 5.8 1.2
v 1 5.9 1.3
v 1 5.9 1.2
v 1 5.9 1.1
v 1 6 1.2
v 1 6 1.1
v 1.1 5.7 1.3
v 1.1 5.7 1.2
v 1.1 5.8 1.3
v 1.1 5.8 1.2
v 1.1 5.8 1.1
v 1.1 5.9 1.2
v 1.1 5.9 1.1
v 1.1 5.9 1
v 1.1 6 1.1
v 1.1 6 1
v 1.2 4.9 3.4
v 1.2 4.9 3.3
v 1.2 5 3.4
v 1.2 5 3.3
v 1.2 5.3 4
v 1.2 5.3 3.4
v 1.2 5.3 3.3
v 1.2 5.4 4
v 1.2 5.4 3.3
v 1.2 5.6 4
v 1.2 5.6 3.1
v 1.2 5.6 1.3
v 1.2 5.6 1.2
v 1.2 5.7 4
v 1.2 5.7 3.9
v 1.2 5.7 3.2
v 1.2 5.7 3.1
v 1.2 5.7 1.3
v 1.2 5.7 1.2
v 1.2 5.7 1.1
v 1.2 5.8 4
v 1.2 5.8 3.9
v 1.2 5.8 3.2
v 1.2 5.8 3.1
v 1.2 5.8 1.2
v 1.2 5.8 1.1
v 1.2 5.8 1
v 1.2 5.9 1.1
v 1.2 5.9 1
v 1.2 5.9 0.9
v 1.2 6 1
v 1.2 6 0.9
v 1.3 4.9 3.3
v 1.3 4.9 3.1
v 1.3 5 3.3
v 1.3 5 3.1
v 1.3 5 2.9
v 1.3 5.3 3.3
v 1.3 5.3 3.1
v 1.3 5.3 2.9
v 1.3 5.4 4
v 1.3 5.4 3.3
v 1.3 5.4 3.2
v 1.3 5.4 1.3
v 1.3 5.4 1.2
v 1.3 5.5 3.2
v 1.3 5.5 3.1
v 1.3 5.6 4
v 1.3 5.6 3.1
v 1.3 5.6 1.3
v 1.3 5.6 1.2
v 1.3 5.6 1.1
v 1.3 5.7 1.2
v 1.3 5.7 1.1
v 1.3 5.7 1
v 1.3 5.8 1.1
v 1.3 5.8 1
v 1.3 5.8 0.9
v 1.3 5.9 1
v 1.3 5.9 0.9
v 1.3 5.9 0.8
v 1.3 6 0.9
v 1.3 6 0.8
v 1.4 2 1.3
v 1.4 2 -1.2
v 1.4 4.9 2.9
v 1.4 4.9 1.3
v 1.4 5.4 2.9
v 1.4 5.4 1.2
v 1.4 5.6 1.2
v 1.4 5.6 1.1
v 1.4 5.7 1.1
v 1.4 5.7 1
v 1.4 5.8 1
v 1.4 5.8 0.9
v 1.4 5.9 0.9
v 1.4 5.9 0.8
v 1.4 6 0.8
v 1.4 6 -1.2
v 0.9 5.4 4
v 0.9 5.6 4
v 1 5.3 4
v 1 5.4 4
v 1 5.6 4
v 1 5.7 4
v 1 5.8 4
v 1.2 5.3 4
v 1.2 5.4 4
v 1.2 5.6 4
v 1.2 5.7 4
v 1.2 5.8 4
v 1.3 5.4 4
v 1.3 5.6 4
v 1 5.4 3.5
v 1 5.6 3.5
v 1.2 5.4 3.5
v 1.2 5.6 3.5
v 1 4.9 3.4
v 1 5 3.4
v 1 5.3 3.4
v 1.2 4.9 3.4
v 1.2 5 3.4
v 1.2 5.3 3.4
v 0.9 4.9 3.3
v 0.9 5 3.3
v 0.9 5.3 3.3
v 0.9 5.4 3.3
v 1 4.9 3.3
v 1 5 3.3
v 1 5.3 3.3
v 1 5.4 3.3
v 1.2 4.9 3.3
v 1.2 5 3.3
v 1.2 5.3 3.3
v 1.2 5.4 3.3
v 1.3 4.9 3.3
v 1.3 5 3.3
v 1.3 5.3 3.3
v 1.3 5.4 3.3
v 1 5.7 3.2
v 1 5.8 3.2
v 1.2 5.7 3.2
v 1.2 5.8 3.2
v 0.8 4.9 2.9
v 0.8 5.4 2.9
v 0.9 5 2.9
v 0.9 5.3 2.9
v 1 5 2.9
v 1 5.3 2.9
v 1.3 5 2.9
v 1.3 5.3 2.9
v 1.4 4.9 2.9
v 1.4 5.4 2.9
v -1.5 2 1.3
v -1.5 5.5 1.3
v -1.4 5.5 1.3
v -1.4 5.6 1.3
v -1.3 5.6 1.3
v -1.3 5.7 1.3
v -1.2 5.7 1.3
v -1.2 5.8 1.3
v -1.1 5.8 1.3
v -1.1 5.9 1.3
v -1 2 1.3
v -1 4.6 1.3
v -1 5.9 1.3
v -1 6 1.3
v -0.9 4.5 1.3
v -0.9 4.6 1.3
v -0.8 2 1.3
v -0.8 4.5 1.3
v 0.7 2 1.3
v 0.7 4.5 1.3
v 0.8 4.5 1.3
v 0.8 4.6 1.3
v 0.8 4.9 1.3
v 0.8 5.4 1.3
v 0.9 2 1.3
v 0.9 4.6 1.3
v 0.9 5.9 1.3
v 0.9 6 1.3
v 1 5.8 1.3
v 1 5.9 1.3
v 1.1 5.7 1.3
v 1.1 5.8 1.3
v 1.2 5.6 1.3
v 1.2 5.7 1.3
v 1.3 5.4 1.3
v 1.3 5.6 1.3
v 1.4 2 1.3
v 1.4 4.9 1.3
v -1.5 5.5 1.2
v -1.5 5.6 1.2
v -1.4 5.5 1.2
v -1.4 5.6 1.2
v -1.4 5.7 1.2
v -1.3 5.6 1.2
v -1.3 5.7 1.2
v -1.3 5.8 1.2
v -1.2 5.7 1.2
v -1.2 5.8 1.2
v -1.2 5.9 1.2
v -1.1 5.8 1.2
v -1.1 5.9 1.2
v -1.1 6 1.2
v -1 2 1.2
v -1 4.6 1.2
v -1 5.9 1.2
v -1 6 1.2
v -0.9 4.5 1.2
v -0.9 4.6 1.2
v -0.8 2 1.2
v -0.8 4.5 1.2
v 0.7 2 1.2
v 0.7 4.5 1.2
v 0.8 4.5 1.2
v 0.8 4.6 1.2
v 0.9 2 1.2
v 0.9 4.6 1.2
v 0.9 5.9 1.2
v 0.9 6 1.2
v 1 5.8 1.2
v 1 5.9 1.2
v 1 6 1.2
v 1.1 5.7 1.2
v 1.1 5.8 1.2
v 1.1 5.9 1.2
v 1.2 5.6 1.2
v 1.2 5.7 1.2
v 1.2 5.8 1.2
v 1.3 5.4 1.2
v 1.3 5.6 1.2
v 1.3 5.7 1.2
v 1.4 5.4 1.2
v 1.4 5.6 1.2
v -1.5 5.6 1.1
v -1.5 5.7 1.1
v -1.4 5.6 1.1
v -1.4 5.7 1.1
v -1.4 5.8 1.1
v -1.3 5.7 1.1
v -1.3 5.8 1.1
v -1.3 5.9 1.1
v -1.2 5.8 1.1
v -1.2 5.9 1.1
v -1.2 6 1.1
v -1.1 5.9 1.1
v -1.1 6 1.1
v 1 5.9 1.1
v 1 6 1.1
v 1.1 5.8 1.1
v 1.1 5.9 1.1
v 1.1 6 1.1
v 1.2 5.7 1.1
v 1.2 5.8 1.1
v 1.2 5.9 1.1
v 1.3 5.6 1.1
v 1.3 5.7 1.1
v 1.3 5.8 1.1
v 1.4 5.6 1.1
v 1.4 5.7 1.1
v -1.5 5.7 1
v -1.5 5.8 1
v -1.4 5.7 1
v -1.4 5.8 1
v -1.4 5.9 1
v -1.3 5.8 1
v -1.3 5.9 1
v -1.3 6 1
v -1.2 5.9 1
v -1.2 6 1
v 1.1 5.9 1
v 1.1 6 1
v 1.2 5.8 1
v 1.2 5.9 1
v 1.2 6 1
v 1.3 5.7 1
v 1.3 5.8 1
v 1.3 5.9 1
v 1.4 5.7 1
v 1.4 5.8 1
v -1.5 5.8 0.9
v -1.5 5.9 0.9
v -1.4 5.8 0.9
v -1.4 5.9 0.9
v -1.4 6 0.9
v -1.3 5.9 0.9
v -1.3 6 0.9
v 1.2 5.9 0.9
v 1.2 6 0.9
v 1.3 5.8 0.9
v 1.3 5.9 0.9
v 1.3 6 0.9
v 1.4 5.8 0.9
v 1.4 5.9 0.9
v -1.5 5.9 0.8
v -1.5 6 0.8
v -1.4 5.9 0.8
v -1.4 6 0.8
v 1.3 5.9 0.8
v 1.3 6 0.8
v 1.4 5.9 0.8
v 1.4 6 0.8
v 1 5.7 3.9
v 1 5.8 3.9
v 1.2 5.7 3.9
v 1.2 5.8 3.9
v 0.9 4.9 3.1
v 0.9 5 3.1
v 0.9 5.3 3.1
v 0.9 5.5 3.1
v 0.9 5.6 3.1
v 1 5 3.1
v 1 5.3 3.1
v 1 5.6 3.1
v 1 5.7 3.1
v 1 5.8 3.1
v 1.1 5.5 3.1
v 1.1 5.6 3.1
v 1.2 5.5 3.1
v 1.2 5.6 3.1
v 1.2 5.7 3.1
v 1.2 5.8 3.1
v 1.3 4.9 3.1
v 1.3 5 3.1
v 1.3 5.3 3.1
v 1.3 5.5 3.1
v 1.3 5.6 3.1
v -1.5 2 -1.2
v -1.5 6 -1.2
v 1.4 2 -1.2
v 1.4 6 -1.2
v -1.5 2 1.3
v -1 2 1.3
v -0.8 2 1.3
v 0.7 2 1.3
v 0.9 2 1.3
v 1.4 2 1.3
v -1 2 1.2
v -0.8 2 1.2
v -0.6 2 1.2
v 0.5 2 1.2
v 0.7 2 1.2
v 0.9 2 1.2
v -1 2 1.1
v -0.6 2 1.1
v 0.5 2 1.1
v 0.9 2 1.1
v -1.5 2 -1.2
v 1.4 2 -1.2
v -0.9 4.5 1.3
v -0.8 4.5 1.3
v 0.7 4.5 1.3
v 0.8 4.5 1.3
v -0.9 4.5 1.2
v -0.8 4.5 1.2
v 0.7 4.5 1.2
v 0.8 4.5 1.2
v -1 4.6 1.3
v -0.9 4.6 1.3
v 0.8 4.6 1.3
v 0.9 4.6 1.3
v -1 4.6 1.2
v -0.9 4.6 1.2
v 0.8 4.6 1.2
v 0.9 4.6 1.2
v 1 4.9 3.4
v 1.2 4.9 3.4
v 0.9 4.9 3.3
v 1 4.9 3.3
v 1.2 4.9 3.3
v 1.3 4.9 3.3
v 0.9 4.9 3.1
v 1.3 4.9 3.1
v 0.8 4.9 2.9
v 1.4 4.9 2.9
v 0.8 4.9 1.3
v 1.4 4.9 1.3
v 0.9 5 3.1
v 1 5 3.1
v 1.3 5 3.1
v 0.9 5 3
v 1 5 3
v 0.9 5 2.9
v 1 5 2.9
v 1.3 5 2.9
v 1 5.3 4
v 1.2 5.3 4
v 1 5.3 3.4
v 1.2 5.3 3.4
v 0.9 5.4 4
v 1 5.4 4
v 1.2 5.4 4
v 1.3 5.4 4
v 0.9 5.4 3.3
v 1 5.4 3.3
v 1.2 5.4 3.3
v 1.3 5.4 3.3
v 1 5.6 4
v 1.2 5.6 4
v 1 5.6 3.5
v 1.2 5.6 3.5
v 0.9 5.3 3.1
v 1 5.3 3.1
v 1.3 5.3 3.1
v 0.9 5.3 2.9
v 1 5.3 2.9
v 1.3 5.3 2.9
v 1 5.4 4
v 1.2 5.4 4
v 1 5.4 3.5
v 1.2 5.4 3.5
v 0.8 5.4 2.9
v 1.4 5.4 2.9
v 0.8 5.4 1.3
v 1.3 5.4 1.3
v 1.3 5.4 1.2
v 1.4 5.4 1.2
v -1.5 5.5 1.3
v -1.4 5.5 1.3
v -1.5 5.5 1.2
v -1.4 5.5 1.2
v 0.9 5.6 4
v 1 5.6 4
v 1.2 5.6 4
v 1.3 5.6 4
v 0.9 5.6 3.1
v 1 5.6 3.1
v 1.2 5.6 3.1
v 1.3 5.6 3.1
v -1.4 5.6 1.3
v -1.3 5.6 1.3
v 1.2 5.6 1.3
v 1.3 5.6 1.3
v -1.5 5.6 1.2
v -1.4 5.6 1.2
v -1.3 5.6 1.2
v 1.2 5.6 1.2
v 1.3 5.6 1.2
v 1.4 5.6 1.2
v -1.5 5.6 1.1
v -1.4 5.6 1.1
v 1.3 5.6 1.1
v 1.4 5.6 1.1
v 1 5.7 3.9
v 1.2 5.7 3.9
v 1 5.7 3.2
v 1.2 5.7 3.2
v -1.3 5.7 1.3
v -1.2 5.7 1.3
v 1.1 5.7 1.3
v 1.2 5.7 1.3
v -1.4 5.7 1.2
v -1.3 5.7 1.2
v -1.2 5.7 1.2
v 1.1 5.7 1.2
v 1.2 5.7 1.2
v 1.3 5.7 1.2
v -1.5 5.7 1.1
v -1.4 5.7 1.1
v -1.3 5.7 1.1
v 1.2 5.7 1.1
v 1.3 5.7 1.1
v 1.4 5.7 1.1
v -1.5 5.7 1
v -1.4 5.7 1
v 1.3 5.7 1
v 1.4 5.7 1
v 1 5.8 4
v 1.2 5.8 4
v 1 5.8 3.9
v 1.2 5.8 3.9
v 1 5.8 3.2
v 1.2 5.8 3.2
v 1 5.8 3.1
v 1.2 5.8 3.1
v -1.2 5.8 1.3
v -1.1 5.8 1.3
v 1 5.8 1.3
v 1.1 5.8 1.3
v -1.3 5.8 1.2
v -1.2 5.8 1.2
v -1.1 5.8 1.2
v 1 5.8 1.2
v 1.1 5.8 1.2
v 1.2 5.8 1.2
v -1.4 5.8 1.1
v -1.3 5.8 1.1
v -1.2 5.8 1.1
v 1.1 5.8 1.1
v 1.2 5.8 1.1
v 1.3 5.8 1.1
v -1.5 5.8 1
v -1.4 5.8 1
v -1.3 5.8 1
v 1.2 5.8 1
v 1.3 5.8 1
v 1.4 5.8 1
v -1.5 5.8 0.9
v -1.4 5.8 0.9
v 1.3 5.8 0.9
v 1.4 5.8 0.9
v -1.1 5.9 1.3
v -1 5.9 1.3
v 0.9 5.9 1.3
v 1 5.9 1.3
v -1.2 5.9 1.2
v -1.1 5.9 1.2
v -1 5.9 1.2
v 0.9 5.9 1.2
v 1 5.9 1.2
v 1.1 5.9 1.2
v -1.3 5.9 1.1
v -1.2 5.9 1.1
v -1.1 5.9 1.1
v 1 5.9 1.1
v 1.1 5.9 1.1
v 1.2 5.9 1.1
v -1.4 5.9 1
v -1.3 5.9 1
v -1.2 5.9 1
v 1.1 5.9 1
v 1.2 5.9 1
v 1.3 5.9 1
v -1.5 5.9 0.9
v -1.4 5.9 0.9
v -1.3 5.9 0.9
v 1.2 5.9 0.9
v 1.3 5.9 0.9
v 1.4 5.9 0.9
v -1.5 5.9 0.8
v -1.4 5.9 0.8
v 1.3 5.9 0.8
v 1.4 5.9 0.8
v -1 6 1.3
v 0.9 6 1.3
v -1.1 6 1.2
v -1 6 1.2
v 0.9 6 1.2
v 1 6 1.2
v -1.2 6 1.1
v -1.1 6 1.1
v 1 6 1.1
v 1.1 6 1.1
v -1.3 6 1
v -1.2 6 1
v 1.1 6 1
v 1.2 6 1
v -1.4 6 0.9
v -1.3 6 0.9
v 1.2 6 0.9
v 1.3 6 0.9
v -1.5 6 0.8
v -1.4 6 0.8
v 1.3 6 0.8
v 1.4 6 0.8
v -1.5 6 -1.2
v 1.4 6 -1.2

# faces
f 3/5/1 2/5/1 1/5/1
f 4/5/1 2/5/1 3/5/1
f 5/5/1 2/5/1 4/5/1
f 6/5/1 2/5/1 5/5/1
f 7/5/1 2/5/1 6/5/1
f 8/5/1 2/5/1 7/5/1
f 9/5/1 2/5/1 8/5/1
f 10/5/1 2/5/1 9/5/1
f 11/5/1 2/5/1 10/5/1
f 12/5/1 2/5/1 11/5/1
f 13/5/1 2/5/1 12/5/1
f 14/5/1 2/5/1 13/5/1
f 17/5/1 16/5/1 15/5/1
f 18/5/1 16/5/1 17/5/1
f 20/5/1 19/5/1 18/5/1
f 21/5/1 19/5/1 20/5/1
f 23/5/1 22/5/1 21/5/1
f 24/5/1 22/5/1 23/5/1
f 26/5/1 25/5/1 24/5/1
f 27/5/1 25/5/1 26/5/1
f 29/5/1 28/5/1 27/5/1
f 30/5/1 28/5/1 29/5/1
f 33/5/1 32/5/1 31/5/1
f 34/5/1 32/5/1 33/5/1
f 36/5/1 35/5/1 34/5/1
f 37/5/1 35/5/1 36/5/1
f 39/5/1 38/5/1 37/5/1
f 40/5/1 38/5/1 39/5/1
f 42/5/1 41/5/1 40/5/1
f 43/5/1 41/5/1 42/5/1
f 46/5/1 45/5/1 44/5/1
f 47/5/1 45/5/1 46/5/1
f 49/5/1 48/5/1 47/5/1
f 50/5/1 48/5/1 49/5/1
f 52/5/1 51/5/1 50/5/1
f 53/5/1 51/5/1 52/5/1
f 56/5/1 55/5/1 54/5/1
f 57/5/1 55/5/1 56/5/1
f 59/5/1 58/5/1 57/5/1
f 60/5/1 58/5/1 59/5/1
f 63/5/1 62/5/1 61/5/1
f 64/5/1 62/5/1 63/5/1
f 67/5/1 66/5/1 65/5/1
f 68/5/1 66/5/1 67/5/1
f 71/5/1 70/5/1 69/5/1
f 72/5/1 70/5/1 71/5/1
f 75/5/1 74/5/1 73/5/1
f 76/5/1 74/5/1 75/5/1
f 79/5/1 78/5/1 77/5/1
f 80/5/1 78/5/1 79/5/1
f 83/4/1 82/4/1 81/4/1
f 84/4/1 82/4/1 83/4/1
f 87/1/1 84/1/1 83/1/1
f 87/1/1 85/1/1 84/1/1
f 88/2/1 86/2/1 85/2/1
f 88/1/1 85/1/1 87/1/1
f 89/1/1 87/1/1 83/1/1
f 90/2/1 88/2/1 87/2/1
f 90/1/1 87/1/1 89/1/1
f 91/2/1 86/2/1 88/2/1
f 91/2/1 88/2/1 90/2/1
f 93/4/1 90/4/1 89/4/1
f 94/4/1 90/4/1 93/4/1
f 95/3/1 93/3/1 92/3/1
f 95/4/1 90/4/1 94/4/1
f 95/3/1 94/3/1 93/3/1
f 96/4/1 90/4/1 95/4/1
f 97/3/1 95/3/1 92/3/1
f 97/3/1 96/3/1 95/3/1
f 98/3/1 96/3/1 97/3/1
f 101/4/1 100/4/1 99/4/1
f 102/4/1 100/4/1 101/4/1
f 104/1/1 102/1/1 101/1/1
f 105/1/1 102/1/1 104/1/1
f 106/3/1 104/3/1 103/3/1
f 106/3/1 105/3/1 104/3/1
f 107/3/1 105/3/1 106/3/1
f 110/3/1 109/3/1 108/3/1
f 111/3/1 109/3/1 110/3/1
f 112/3/1 109/3/1 111/3/1
f 113/3/1 109/3/1 112/3/1
f 114/8/1 111/8/1 110/8/1
f 115/8/1 111/8/1 114/8/1
f 116/8/1 113/8/1 112/8/1
f 117/8/1 113/8/1 116/8/1
f 120/3/1 119/3/1 118/3/1
f 121/3/1 119/3/1 120/3/1
f 122/5/2 123/5/2 124/5/2
f 124/5/2 123/5/2 125/5/2
f 126/5/2 127/5/2 128/5/2
f 128/5/2 127/5/2 129/5/2
f 130/5/2 131/5/2 132/5/2
f 132/5/2 131/5/2 133/5/2
f 134/5/2 135/5/2 136/5/2
f 136/5/2 135/5/2 137/5/2
f 138/3/2 139/3/2 140/3/2
f 140/3/2 139/3/2 141/3/2
f 142/5/2 143/5/2 144/5/2
f 144/5/2 143/5/2 145/5/2
f 145/5/2 146/5/2 147/5/2
f 147/5/2 146/5/2 148/5/2
f 149/5/2 150/5/2 151/5/2
f 151/5/2 150/5/2 152/5/2
f 152/5/2 153/5/2 154/5/2
f 154/5/2 153/5/2 155/5/2
f 155/5/2 156/5/2 157/5/2
f 157/5/2 156/5/2 158/5/2
f 159/4/2 160/4/2 161/4/2
f 161/4/2 160/4/2 162/4/2
f 161/1/2 162/1/2 164/1/2
f 164/1/2 162/1/2 165/1/2
f 163/3/2 164/3/2 166/3/2
f 164/3/2 165/3/2 166/3/2
f 166/3/2 165/3/2 167/3/2
f 168/3/2 169/3/2 172/3/2
f 172/3/2 169/3/2 173/3/2
f 173/3/2 169/3/2 174/3/2
f 174/3/2 169/3/2 175/3/2
f 170/5/2 171/5/2 176/5/2
f 176/5/2 171/5/2 177/5/2
f 172/8/2 173/8/2 179/8/2
f 179/8/2 173/8/2 180/8/2
f 174/8/2 175/8/2 181/8/2
f 181/8/2 175/8/2 182/8/2
f 177/5/2 178/5/2 183/5/2
f 183/5/2 178/5/2 184/5/2
f 184/5/2 185/5/2 186/5/2
f 186/5/2 185/5/2 187/5/2
f 187/5/2 188/5/2 189/5/2
f 189/5/2 188/5/2 190/5/2
f 191/4/2 192/4/2 193/4/2
f 193/4/2 192/4/2 194/4/2
f 193/1/2 194/1/2 196/1/2
f 194/6/2 195/6/2 197/6/2
f 196/1/2 194/1/2 197/1/2
f 197/6/2 195/6/2 198/6/2
f 196/4/2 197/4/2 200/4/2
f 200/4/2 197/4/2 201/4/2
f 201/4/2 197/4/2 204/4/2
f 199/3/2 200/3/2 204/3/2
f 200/3/2 201/3/2 204/3/2
f 204/4/2 197/4/2 205/4/2
f 199/3/2 204/3/2 206/3/2
f 204/3/2 205/3/2 206/3/2
f 206/3/2 205/3/2 207/3/2
f 202/5/2 203/5/2 208/5/2
f 208/5/2 203/5/2 209/5/2
f 209/5/2 210/5/2 211/5/2
f 211/5/2 210/5/2 212/5/2
f 212/5/2 213/5/2 214/5/2
f 214/5/2 213/5/2 215/5/2
f 215/5/2 216/5/2 217/5/2
f 217/5/2 216/5/2 218/5/2
f 218/5/2 219/5/2 220/5/2
f 220/5/2 219/5/2 221/5/2
f 222/5/2 223/5/2 225/5/2
f 224/5/2 225/5/2 226/5/2
f 225/5/2 223/5/2 227/5/2
f 226/5/2 225/5/2 227/5/2
f 227/5/2 223/5/2 228/5/2
f 228/5/2 223/5/2 229/5/2
f 229/5/2 223/5/2 230/5/2
f 230/5/2 223/5/2 231/5/2
f 231/5/2 223/5/2 232/5/2
f 232/5/2 223/5/2 233/5/2
f 233/5/2 223/5/2 234/5/2
f 234/5/2 223/5/2 235/5/2
f 235/5/2 223/5/2 236/5/2
f 236/5/2 223/5/2 237/5/2
f 241/3/3 239/3/3 238/3/3
f 242/3/3 239/3/3 241/3/3
f 245/3/3 241/3/3 240/3/3
f 246/3/3 241/3/3 245/3/3
f 247/3/3 243/3/3 242/3/3
f 248/8/3 244/8/3 243/8/3
f 248/3/3 243/3/3 247/3/3
f 249/8/3 244/8/3 248/8/3
f 250/3/3 247/3/3 246/3/3
f 251/3/3 247/3/3 250/3/3
f 254/8/3 253/8/3 252/8/3
f 255/8/3 253/8/3 254/8/3
f 259/4/3 257/4/3 256/4/3
f 260/1/3 258/1/3 257/1/3
f 260/4/3 257/4/3 259/4/3
f 261/1/3 258/1/3 260/1/3
f 266/4/3 263/4/3 262/4/3
f 267/1/3 264/1/3 263/1/3
f 267/4/3 263/4/3 266/4/3
f 268/4/3 265/4/3 264/4/3
f 268/1/3 264/1/3 267/1/3
f 269/4/3 265/4/3 268/4/3
f 274/4/3 271/4/3 270/4/3
f 275/1/3 272/1/3 271/1/3
f 275/4/3 271/4/3 274/4/3
f 276/4/3 273/4/3 272/4/3
f 276/1/3 272/1/3 275/1/3
f 277/4/3 273/4/3 276/4/3
f 280/8/3 279/8/3 278/8/3
f 281/8/3 279/8/3 280/8/3
f 284/5/3 283/5/3 282/5/3
f 285/5/3 283/5/3 284/5/3
f 286/5/3 284/5/3 282/5/3
f 287/5/3 283/5/3 285/5/3
f 288/5/3 286/5/3 282/5/3
f 289/5/3 283/5/3 287/5/3
f 290/5/3 288/5/3 282/5/3
f 290/5/3 289/5/3 288/5/3
f 291/5/3 283/5/3 289/5/3
f 291/5/3 289/5/3 290/5/3
f 294/5/3 293/5/3 292/5/3
f 296/5/3 295/5/3 294/5/3
f 298/5/3 297/5/3 296/5/3
f 300/5/3 299/5/3 298/5/3
f 302/5/3 294/5/3 292/5/3
f 302/5/3 301/5/3 300/5/3
f 302/5/3 300/5/3 298/5/3
f 302/5/3 298/5/3 296/5/3
f 302/5/3 296/5/3 294/5/3
f 303/5/3 301/5/3 302/5/3
f 304/5/3 301/5/3 303/5/3
f 307/5/3 305/5/3 304/5/3
f 307/5/3 304/5/3 303/5/3
f 309/5/3 307/5/3 306/5/3
f 310/5/3 309/5/3 308/5/3
f 311/5/3 307/5/3 309/5/3
f 311/5/3 309/5/3 310/5/3
f 312/5/3 307/5/3 311/5/3
f 313/5/3 305/5/3 307/5/3
f 313/5/3 307/5/3 312/5/3
f 314/5/3 305/5/3 313/5/3
f 315/5/3 305/5/3 314/5/3
f 317/5/3 314/5/3 313/5/3
f 318/5/3 305/5/3 315/5/3
f 319/5/3 305/5/3 318/5/3
f 320/5/3 318/5/3 315/5/3
f 321/5/3 318/5/3 320/5/3
f 322/5/3 320/5/3 315/5/3
f 323/5/3 320/5/3 322/5/3
f 324/5/3 322/5/3 315/5/3
f 325/5/3 322/5/3 324/5/3
f 326/5/3 324/5/3 315/5/3
f 327/5/3 324/5/3 326/5/3
f 328/5/3 317/5/3 316/5/3
f 329/5/3 314/5/3 317/5/3
f 329/5/3 317/5/3 328/5/3
f 332/5/3 331/5/3 330/5/3
f 333/5/3 331/5/3 332/5/3
f 335/5/3 334/5/3 333/5/3
f 336/5/3 334/5/3 335/5/3
f 338/5/3 337/5/3 336/5/3
f 339/5/3 337/5/3 338/5/3
f 341/5/3 340/5/3 339/5/3
f 342/5/3 340/5/3 341/5/3
f 346/5/3 343/5/3 342/5/3
f 347/5/3 343/5/3 346/5/3
f 348/7/3 345/7/3 344/7/3
f 349/7/3 345/7/3 348/7/3
f 350/7/3 348/7/3 344/7/3
f 351/7/3 348/7/3 350/7/3
f 354/7/3 353/7/3 352/7/3
f 356/7/3 354/7/3 352/7/3
f 356/7/3 355/7/3 354/7/3
f 357/7/3 355/7/3 356/7/3
f 361/5/3 359/5/3 358/5/3
f 362/5/3 359/5/3 361/5/3
f 364/5/3 361/5/3 360/5/3
f 365/5/3 361/5/3 364/5/3
f 367/5/3 364/5/3 363/5/3
f 368/5/3 364/5/3 367/5/3
f 370/5/3 367/5/3 366/5/3
f 371/5/3 367/5/3 370/5/3
f 372/5/3 370/5/3 369/5/3
f 373/5/3 370/5/3 372/5/3
f 376/5/3 375/5/3 374/5/3
f 377/5/3 375/5/3 376/5/3
f 379/5/3 378/5/3 377/5/3
f 380/5/3 378/5/3 379/5/3
f 382/5/3 381/5/3 380/5/3
f 383/5/3 381/5/3 382/5/3
f 385/5/3 384/5/3 383/5/3
f 386/5/3 384/5/3 385/5/3
f 390/5/3 388/5/3 387/5/3
f 391/5/3 388/5/3 390/5/3
f 393/5/3 390/5/3 389/5/3
f 394/5/3 390/5/3 393/5/3
f 396/5/3 393/5/3 392/5/3
f 397/5/3 393/5/3 396/5/3
f 398/5/3 396/5/3 395/5/3
f 399/5/3 396/5/3 398/5/3
f 402/5/3 401/5/3 400/5/3
f 403/5/3 401/5/3 402/5/3
f 405/5/3 404/5/3 403/5/3
f 406/5/3 404/5/3 405/5/3
f 408/5/3 407/5/3 406/5/3
f 409/5/3 407/5/3 408/5/3
f 413/5/3 411/5/3 410/5/3
f 414/5/3 411/5/3 413/5/3
f 416/5/3 413/5/3 412/5/3
f 417/5/3 413/5/3 416/5/3
f 418/5/3 416/5/3 415/5/3
f 419/5/3 416/5/3 418/5/3
f 422/5/3 421/5/3 420/5/3
f 423/5/3 421/5/3 422/5/3
f 425/5/3 424/5/3 423/5/3
f 426/5/3 424/5/3 425/5/3
f 430/5/3 428/5/3 427/5/3
f 431/5/3 428/5/3 430/5/3
f 432/5/3 430/5/3 429/5/3
f 433/5/3 430/5/3 432/5/3
f 436/5/3 435/5/3 434/5/3
f 437/5/3 435/5/3 436/5/3
f 440/5/3 439/5/3 438/5/3
f 441/5/3 439/5/3 440/5/3
f 442/8/4 443/8/4 444/8/4
f 444/8/4 443/8/4 445/8/4
f 446/4/4 447/4/4 451/4/4
f 448/4/4 449/4/4 452/4/4
f 449/3/4 450/3/4 453/3/4
f 452/4/4 449/4/4 456/4/4
f 449/3/4 453/3/4 456/3/4
f 453/3/4 454/3/4 456/3/4
f 456/3/4 454/3/4 457/3/4
f 452/4/4 456/4/4 458/4/4
f 456/7/4 457/7/4 458/7/4
f 457/3/4 454/3/4 459/3/4
f 458/7/4 457/7/4 459/7/4
f 454/8/4 455/8/4 460/8/4
f 459/3/4 454/3/4 460/3/4
f 460/8/4 455/8/4 461/8/4
f 446/4/4 451/4/4 462/4/4
f 462/4/4 451/4/4 463/4/4
f 452/4/4 458/4/4 464/4/4
f 458/3/4 459/3/4 465/3/4
f 464/4/4 458/4/4 465/4/4
f 465/3/4 459/3/4 466/3/4
f 467/5/4 468/5/4 469/5/4
f 469/5/4 468/5/4 470/5/4
f 477/5/5 472/5/5 471/5/5
f 478/5/5 474/5/5 473/5/5
f 479/5/5 474/5/5 478/5/5
f 480/5/5 474/5/5 479/5/5
f 481/5/5 474/5/5 480/5/5
f 482/5/5 476/5/5 475/5/5
f 483/5/5 477/5/5 471/5/5
f 483/7/5 478/7/5 477/7/5
f 483/7/5 479/7/5 478/7/5
f 484/5/5 480/5/5 479/5/5
f 484/7/5 479/7/5 483/7/5
f 485/7/5 481/7/5 480/7/5
f 485/5/5 480/5/5 484/5/5
f 485/7/5 482/7/5 481/7/5
f 486/5/5 476/5/5 482/5/5
f 486/7/5 482/7/5 485/7/5
f 487/5/5 484/5/5 483/5/5
f 487/5/5 483/5/5 471/5/5
f 487/5/5 486/5/5 485/5/5
f 487/5/5 485/5/5 484/5/5
f 488/5/5 476/5/5 486/5/5
f 488/5/5 486/5/5 487/5/5
f 493/5/5 490/5/5 489/5/5
f 494/5/5 490/5/5 493/5/5
f 495/5/5 492/5/5 491/5/5
f 496/5/5 492/5/5 495/5/5
f 501/5/5 498/5/5 497/5/5
f 502/5/5 498/5/5 501/5/5
f 503/5/5 500/5/5 499/5/5
f 504/5/5 500/5/5 503/5/5
f 508/4/5 506/4/5 505/4/5
f 509/4/5 506/4/5 508/4/5
f 511/4/5 508/4/5 507/4/5
f 511/4/5 510/4/5 509/4/5
f 511/4/5 509/4/5 508/4/5
f 512/4/5 510/4/5 511/4/5
f 515/5/5 514/5/5 513/5/5
f 516/5/5 514/5/5 515/5/5
f 520/1/5 518/1/5 517/1/5
f 521/6/5 519/6/5 518/6/5
f 521/1/5 518/1/5 520/1/5
f 522/2/5 521/2/5 520/2/5
f 523/6/5 519/6/5 521/6/5
f 523/2/5 521/2/5 522/2/5
f 524/6/5 519/6/5 523/6/5
f 527/3/5 526/3/5 525/3/5
f 528/3/5 526/3/5 527/3/5
f 533/3/5 530/3/5 529/3/5
f 534/3/5 530/3/5 533/3/5
f 535/3/5 532/3/5 531/3/5
f 536/3/5 532/3/5 535/3/5
f 539/3/5 538/3/5 537/3/5
f 540/3/5 538/3/5 539/3/5
f 541/2/6 542/2/6 544/2/6
f 542/6/6 543/6/6 545/6/6
f 544/2/6 542/2/6 545/2/6
f 545/6/6 543/6/6 546/6/6
f 547/3/6 548/3/6 549/3/6
f 549/3/6 548/3/6 550/3/6
f 551/5/6 552/5/6 553/5/6
f 553/5/6 552/5/6 554/5/6
f 554/5/6 552/5/6 555/5/6
f 555/5/6 552/5/6 556/5/6
f 557/5/6 558/5/6 559/5/6
f 559/5/6 558/5/6 560/5/6
f 561/3/6 562/3/6 565/3/6
f 565/3/6 562/3/6 566/3/6
f 563/3/6 564/3/6 567/3/6
f 567/3/6 564/3/6 568/3/6
f 569/5/6 570/5/6 574/5/6
f 574/5/6 570/5/6 575/5/6
f 571/5/6 572/5/6 576/5/6
f 576/5/6 572/5/6 577/5/6
f 573/5/6 574/5/6 579/5/6
f 579/5/6 574/5/6 580/5/6
f 577/5/6 578/5/6 581/5/6
f 581/5/6 578/5/6 582/5/6
f 583/3/6 584/3/6 585/3/6
f 585/3/6 584/3/6 586/3/6
f 587/5/6 588/5/6 592/5/6
f 592/5/6 588/5/6 593/5/6
f 589/5/6 590/5/6 594/5/6
f 594/5/6 590/5/6 595/5/6
f 591/5/6 592/5/6 598/5/6
f 598/5/6 592/5/6 599/5/6
f 595/5/6 596/5/6 600/5/6
f 600/5/6 596/5/6 601/5/6
f 597/5/6 598/5/6 603/5/6
f 603/5/6 598/5/6 604/5/6
f 601/5/6 602/5/6 605/5/6
f 605/5/6 602/5/6 606/5/6
f 607/8/6 608/8/6 609/8/6
f 609/8/6 608/8/6 610/8/6
f 611/8/6 612/8/6 613/8/6
f 613/8/6 612/8/6 614/8/6
f 615/5/6 616/5/6 620/5/6
f 620/5/6 616/5/6 621/5/6
f 617/5/6 618/5/6 622/5/6
f 622/5/6 618/5/6 623/5/6
f 619/5/6 620/5/6 626/5/6
f 626/5/6 620/5/6 627/5/6
f 623/5/6 624/5/6 628/5/6
f 628/5/6 624/5/6 629/5/6
f 625/5/6 626/5/6 632/5/6
f 632/5/6 626/5/6 633/5/6
f 629/5/6 630/5/6 634/5/6
f 634/5/6 630/5/6 635/5/6
f 631/5/6 632/5/6 637/5/6
f 637/5/6 632/5/6 638/5/6
f 635/5/6 636/5/6 639/5/6
f 639/5/6 636/5/6 640/5/6
f 641/5/6 642/5/6 646/5/6
f 646/5/6 642/5/6 647/5/6
f 643/5/6 644/5/6 648/5/6
f 648/5/6 644/5/6 649/5/6
f 645/5/6 646/5/6 652/5/6
f 652/5/6 646/5/6 653/5/6
f 649/5/6 650/5/6 654/5/6
f 654/5/6 650/5/6 655/5/6
f 651/5/6 652/5/6 658/5/6
f 658/5/6 652/5/6 659/5/6
f 655/5/6 656/5/6 660/5/6
f 660/5/6 656/5/6 661/5/6
f 657/5/6 658/5/6 664/5/6
f 664/5/6 658/5/6 665/5/6
f 661/5/6 662/5/6 666/5/6
f 666/5/6 662/5/6 667/5/6
f 663/5/6 664/5/6 669/5/6
f 669/5/6 664/5/6 670/5/6
f 667/5/6 668/5/6 671/5/6
f 671/5/6 668/5/6 672/5/6
f 673/5/6 674/5/6 676/5/6
f 676/5/6 674/5/6 677/5/6
f 675/5/6 676/5/6 680/5/6
f 677/5/6 678/5/6 680/5/6
f 676/5/6 677/5/6 680/5/6
f 680/5/6 678/5/6 681/5/6
f 679/5/6 680/5/6 684/5/6
f 681/5/6 682/5/6 684/5/6
f 680/5/6 681/5/6 684/5/6
f 684/5/6 682/5/6 685/5/6
f 683/5/6 684/5/6 688/5/6
f 685/5/6 686/5/6 688/5/6
f 684/5/6 685/5/6 688/5/6
f 688/5/6 686/5/6 689/5/6
f 687/5/6 688/5/6 692/5/6
f 689/5/6 690/5/6 692/5/6
f 688/5/6 689/5/6 692/5/6
f 692/5/6 690/5/6 693/5/6
f 691/5/6 692/5/6 695/5/6
f 693/5/6 694/5/6 695/5/6
f 692/5/6 693/5/6 695/5/6
f 695/5/6 694/5/6 696/5/6
